# xmcd CD database file
# Copyright (C) 1995-1998 Ti Kan
#
# Track frame offsets:
#	150
#	14720
#	26135
#
# Disc length: 502 seconds
#
# Revision: 1
# Processed by: cddbd v1.4b41PL1 Copyright (c) Steve Scherf et al.
# Submitted via: CDex 1.40Beta3
#
DISCID=2101f403
DTITLE=SLIM DUSTY - SLIM DUSTY - LOOKING FORWARD LOOKING BACK/GOOD HEAVENS A
DTITLE=BOVE
DYEAR=1900
DGENRE=Country
TTITLE0=LOOKING FORWARD LOOKING BACK
TTITLE1=GOOD HEAVENS ABOVE
TTITLE2=RIDIN' THIS ROAD
EXTD=ID3G:   2
EXTT0=
EXTT1=
EXTT2=
PLAYORDER=
